<?xml version="1.0" encoding="UTF-8"?>
<svg width="24" height="24" viewBox="0 0 24 24" xmlns="http://www.w3.org/2000/svg">
  <title>scrunchy</title>
  <path fill-rule="evenodd" fill="#3B82F6" d="M 20.30,12.00 C 20.30,13.38 18.90,12.44 18.37,14.07 C 17.84,15.70 19.53,15.76 18.71,16.88 C 17.90,18.00 17.32,16.42 15.94,17.42 C 14.55,18.43 15.88,19.47 14.56,19.89 C 13.25,20.32 13.71,18.70 12.00,18.70 C 10.29,18.70 10.75,20.32 9.44,19.89 C 8.12,19.47 9.45,18.43 8.06,17.42 C 6.68,16.42 6.10,18.00 5.29,16.88 C 4.47,15.76 6.16,15.70 5.63,14.07 C 5.10,12.44 3.70,13.38 3.70,12.00 C 3.70,10.62 5.10,11.56 5.63,9.93 C 6.16,8.30 4.47,8.24 5.29,7.12 C 6.10,6.00 6.68,7.58 8.06,6.58 C 9.45,5.57 8.12,4.53 9.44,4.11 C 10.75,3.68 10.29,5.30 12.00,5.30 C 13.71,5.30 13.25,3.68 14.56,4.11 C 15.88,4.53 14.55,5.57 15.94,6.58 C 17.32,7.58 17.90,6.00 18.71,7.12 C 19.53,8.24 17.84,8.30 18.37,9.93 C 18.90,11.56 20.30,10.62 20.30,12.00 Z M 16.10,12.00 L 16.05,11.36 L 15.90,10.73 L 15.65,10.14 L 15.32,9.59 L 14.90,9.10 L 14.41,8.68 L 13.86,8.35 L 13.27,8.10 L 12.64,7.95 L 12.00,7.90 L 11.36,7.95 L 10.73,8.10 L 10.14,8.35 L 9.59,8.68 L 9.10,9.10 L 8.68,9.59 L 8.35,10.14 L 8.10,10.73 L 7.95,11.36 L 7.90,12.00 L 7.95,12.64 L 8.10,13.27 L 8.35,13.86 L 8.68,14.41 L 9.10,14.90 L 9.59,15.32 L 10.14,15.65 L 10.73,15.90 L 11.36,16.05 L 12.00,16.10 L 12.64,16.05 L 13.27,15.90 L 13.86,15.65 L 14.41,15.32 L 14.90,14.90 L 15.32,14.41 L 15.65,13.86 L 15.90,13.27 L 16.05,12.64 Z"/>
</svg>
